<svg xmlns="http://www.w3.org/2000/svg" width="2600" height="960" viewBox="0 0 2600 960" version="1.1"><path d="" stroke="none" fill="#f85454" fill-rule="evenodd"/><path d="M 39 388 L 39 583 106.500 583 L 174 583 174 517.500 L 174 452 240 452 L 306 452 306 403 L 306 354 240 354 L 174 354 174 323.007 L 174 292.014 240.102 291.757 L 306.204 291.500 316.564 267 L 326.925 242.500 326.963 217.750 L 327 193 183 193 L 39 193 39 388 M 356 388 L 356 583 423.500 583 L 491 583 491 522.500 L 491 462 504.250 462 L 517.500 462 535.430 522.500 L 553.359 583 619.180 583 L 685 583 685 558.230 L 685 533.459 664.185 486.371 L 643.371 439.284 649.865 436.454 C 663.275 430.612, 675.342 415.456, 678.001 401.114 C 678.613 397.813, 678.993 365.276, 678.983 317.114 C 678.964 231.565, 678.901 230.471, 673.318 219.017 C 667.719 207.532, 653.330 197.022, 639.201 194.097 C 635.504 193.332, 591.886 193, 494.951 193 L 356 193 356 388 M 722 388 L 722 583 866 583 L 1010 583 1010 534 L 1010 485 933 485 L 856 485 856 458.500 L 856 432 922 432 L 988 432 988 383 L 988 334 922 334 L 856 334 856 313.007 L 856 292.014 922.124 291.757 L 988.249 291.500 999.095 266.500 L 1009.941 241.500 1009.970 217.250 L 1010 193 866 193 L 722 193 722 388 M 1045 388 L 1045 583 1189 583 L 1333 583 1333 534 L 1333 485 1256 485 L 1179 485 1179 458.500 L 1179 432 1245 432 L 1311 432 1311 383 L 1311 334 1245 334 L 1179 334 1179 313.007 L 1179 292.014 1245.124 291.757 L 1311.249 291.500 1322.095 266.500 L 1332.941 241.500 1332.970 217.250 L 1333 193 1189 193 L 1045 193 1045 388 M 1368 388.014 L 1368 583.027 1509.250 582.764 L 1650.500 582.500 1657 580.199 C 1672.954 574.550, 1684.659 562.455, 1688.644 547.500 C 1690.646 539.987, 1690.609 235.876, 1688.605 228.350 C 1684.201 211.809, 1670.718 199.163, 1652.540 194.522 C 1647.345 193.195, 1628.705 193, 1507.290 193 L 1368 193 1368 388.014 M 1776 194.573 C 1761.898 198.319, 1749.049 208.069, 1743.637 219.130 C 1737.744 231.176, 1737.938 224.995, 1738.231 391.276 L 1738.500 543.500 1740.788 550.242 C 1745.460 564.013, 1757.671 575.638, 1772.290 580.233 L 1779.500 582.500 1899.500 582.500 L 2019.500 582.500 2026.710 580.233 C 2041.710 575.518, 2053.800 563.813, 2058.231 549.717 L 2060.500 542.500 2060.500 388 L 2060.500 233.500 2058.231 226.283 C 2053.975 212.745, 2042.661 201.412, 2027.888 195.888 L 2021.500 193.500 1901.500 193.306 C 1798.991 193.140, 1780.698 193.325, 1776 194.573 M 2140.535 195.244 C 2140.257 196.485, 2130.348 272.581, 2118.515 364.346 L 2097 531.192 2097 557.096 L 2097 583 2163 583 L 2229 583 2229 489.445 L 2229 395.890 2233.675 396.195 L 2238.349 396.500 2248.614 454.500 C 2254.259 486.400, 2261.688 528.362, 2265.121 547.750 L 2271.364 583 2327.963 583 L 2384.561 583 2401.042 489.750 L 2417.524 396.500 2422.762 396.198 L 2428 395.895 2428 489.448 L 2428 583 2493.500 583 L 2559 583 2559 557.155 L 2559 531.310 2537.991 366.405 C 2526.435 275.707, 2516.709 199.585, 2516.376 197.244 L 2515.771 192.987 2440.149 193.244 L 2364.528 193.500 2348.451 269.500 L 2332.374 345.500 2327.937 345.500 L 2323.500 345.500 2307.438 269.500 L 2291.377 193.500 2216.209 193.244 L 2141.041 192.987 2140.535 195.244 M 491 328 L 491 364 517.500 364 L 544 364 544 328 L 544 292 517.500 292 L 491 292 491 328 M 1502 388.500 L 1502 485 1529 485 L 1556 485 1556 388.500 L 1556 292 1529 292 L 1502 292 1502 388.500 M 1873 388.500 L 1873 485 1899.500 485 L 1926 485 1926 388.500 L 1926 292 1899.500 292 L 1873 292 1873 388.500 M 48.523 632.250 C 45.482 645.545, 32 727.930, 32 733.218 L 32 740.043 51.250 739.772 L 70.500 739.500 71.655 729.500 C 72.291 724, 72.853 719.163, 72.905 718.750 C 72.957 718.337, 76.542 718, 80.871 718 L 88.742 718 89.426 727.250 C 90.473 741.402, 88.203 740, 110.067 740 L 129 740 129.031 732.750 C 129.051 728.053, 126.146 708.688, 120.781 677.754 L 112.500 630.007 80.769 630.004 L 49.038 630 48.523 632.250 M 142.062 631.827 C 135.942 635.109, 135 638.368, 135 656.267 C 135 673.017, 135.825 677.056, 140.199 681.712 C 141.357 682.944, 150.326 688.800, 160.131 694.726 C 177.337 705.125, 177.959 705.613, 177.979 708.750 L 178 712 156.500 712 L 135 712 135 726 L 135 740 170.550 740 C 209.114 740, 209.538 739.945, 213.912 734.385 C 215.862 731.906, 216 730.483, 216 712.825 C 216 686.490, 217.955 689.392, 187.758 670.911 C 176.684 664.133, 174.014 662.063, 174.008 660.250 L 174 658 192.250 657.997 L 210.500 657.993 213.258 651.247 C 215.399 646.009, 216.014 642.879, 216.008 637.250 L 216 630 180.734 630 C 148.490 630, 145.177 630.157, 142.062 631.827 M 229.062 631.827 C 222.942 635.109, 222 638.368, 222 656.267 C 222 673.017, 222.825 677.056, 227.199 681.712 C 228.357 682.944, 237.326 688.800, 247.131 694.726 C 264.337 705.125, 264.959 705.613, 264.979 708.750 L 265 712 243.500 712 L 222 712 222 726 L 222 740 257.550 740 C 296.114 740, 296.538 739.945, 300.912 734.385 C 302.862 731.906, 303 730.483, 303 712.825 C 303 686.490, 304.955 689.392, 274.758 670.911 C 263.684 664.133, 261.014 662.063, 261.008 660.250 L 261 658 279.250 657.997 L 297.500 657.993 300.258 651.247 C 302.399 646.009, 303.014 642.879, 303.008 637.250 L 303 630 267.734 630 C 235.490 630, 232.177 630.157, 229.062 631.827 M 313.015 680.250 C 313.026 718.438, 313.330 731.093, 314.279 732.970 C 314.967 734.328, 317.052 736.466, 318.912 737.720 C 322.295 740, 322.300 740, 362.648 740 L 403 740 403 685 L 403 630 384 630 L 365 630 365 671 L 365 712 358 712 L 351 712 351 671 L 351 630 332 630 L 313 630 313.015 680.250 M 425 630.806 C 425 631.249, 422.303 652.512, 419.007 678.056 C 415.711 703.600, 413.011 727.987, 413.007 732.250 L 413 740 431.500 740 L 450 740 450 714 C 450 693.086, 450.259 688, 451.325 688 C 452.272 688, 453.879 695.048, 456.968 712.750 C 459.344 726.362, 461.500 738.073, 461.760 738.774 C 462.122 739.750, 466.003 739.984, 478.336 739.774 L 494.440 739.500 498.948 713.750 C 504.976 679.324, 506 679.360, 506 714 L 506 740 524.500 740 L 543 740 543 731.491 C 543 724.510, 533.338 642.253, 531.401 632.750 L 530.841 630 509.489 630 L 488.136 630 486.556 637.250 C 485.686 641.237, 483.670 650.723, 482.076 658.329 C 479.287 671.629, 478.572 673.905, 477.514 672.847 C 477.246 672.579, 475.225 663.842, 473.022 653.430 C 470.819 643.019, 468.779 633.487, 468.489 632.250 C 467.963 630.003, 467.935 630, 446.481 630 C 434.666 630, 425 630.363, 425 630.806 M 554 685 L 554 740 573 740 L 592 740 592 723 L 592 706 613.250 705.996 C 645.400 705.991, 644.006 707.723, 643.985 667.800 C 643.969 636.808, 643.864 636.172, 638.088 632.280 C 634.705 630, 634.700 630, 594.352 630 L 554 630 554 685 M 650 644 L 650 658 661.500 658 L 673 658 673 699 L 673 740 692 740 L 711 740 711 699 L 711 658 720.063 658 L 729.125 658 732.251 651.250 C 734.575 646.233, 735.485 642.639, 735.798 637.250 L 736.219 630 693.109 630 L 650 630 650 644 M 744 685 L 744 740 763 740 L 782 740 782 685 L 782 630 763 630 L 744 630 744 685 M 800.912 632.280 C 799.052 633.534, 796.967 635.672, 796.279 637.030 C 794.477 640.591, 794.477 729.409, 796.279 732.970 C 796.967 734.328, 799.052 736.466, 800.912 737.720 C 804.277 739.988, 804.490 740, 840 740 C 875.510 740, 875.723 739.988, 879.088 737.720 C 880.948 736.466, 883.033 734.328, 883.721 732.970 C 885.523 729.409, 885.523 640.591, 883.721 637.030 C 883.033 635.672, 880.948 633.534, 879.088 632.280 C 875.723 630.012, 875.510 630, 840 630 C 804.490 630, 804.277 630.012, 800.912 632.280 M 899 684.979 L 899 740 916.500 740 L 934 740 934 733.155 C 934 727.467, 931.296 703.061, 929.523 692.750 C 929.220 690.987, 929.490 690.003, 930.275 690.008 C 930.977 690.012, 935.126 700.569, 940 714.758 L 948.500 739.500 968.750 739.771 L 989 740.041 989 685.021 L 989 630 971.363 630 L 953.725 630 954.316 641.750 C 954.641 648.212, 955.752 659.462, 956.785 666.750 C 958.188 676.646, 958.361 680, 957.468 680 C 956.801 680, 952.542 669.069, 947.826 655.250 L 939.379 630.500 919.189 630.229 L 899 629.959 899 684.979 M 1092.912 632.280 C 1091.052 633.534, 1088.967 635.672, 1088.279 637.030 C 1087.334 638.898, 1087.029 650.588, 1087.029 685 C 1087.029 719.412, 1087.334 731.102, 1088.279 732.970 C 1088.967 734.328, 1091.052 736.466, 1092.912 737.720 C 1096.278 739.988, 1096.484 740, 1132.148 740 L 1168 740 1168 726 L 1168 712 1146.500 712 L 1125 712 1125 685.022 L 1125 658.044 1143.579 657.772 L 1162.158 657.500 1165.079 650.651 C 1167.363 645.295, 1168 642.297, 1168 636.901 L 1168 630 1132.148 630 C 1096.484 630, 1096.278 630.012, 1092.912 632.280 M 1183.912 632.280 C 1182.052 633.534, 1179.967 635.672, 1179.279 637.030 C 1178.334 638.898, 1178.029 650.588, 1178.029 685 C 1178.029 719.412, 1178.334 731.102, 1179.279 732.970 C 1179.967 734.328, 1182.052 736.466, 1183.912 737.720 C 1187.277 739.988, 1187.490 740, 1223 740 C 1258.510 740, 1258.723 739.988, 1262.088 737.720 C 1263.948 736.466, 1266.033 734.328, 1266.721 732.970 C 1268.523 729.409, 1268.523 640.591, 1266.721 637.030 C 1266.033 635.672, 1263.948 633.534, 1262.088 632.280 C 1258.723 630.012, 1258.510 630, 1223 630 C 1187.490 630, 1187.277 630.012, 1183.912 632.280 M 1282 685 L 1282 740 1320 740 L 1358 740 1358 726 L 1358 712 1339 712 L 1320 712 1320 671 L 1320 630 1301 630 L 1282 630 1282 685 M 1365 685 L 1365 740 1403 740 L 1441 740 1441 726 L 1441 712 1422 712 L 1403 712 1403 671 L 1403 630 1384 630 L 1365 630 1365 685 M 1449 685 L 1449 740 1489.500 740 L 1530 740 1530 726 L 1530 712 1508.500 712 L 1487 712 1487 705 L 1487 698 1505.500 698 L 1524 698 1524 684 L 1524 670 1505.500 670 L 1487 670 1487 664 L 1487 658 1505.351 658 L 1523.702 658 1526.851 650.871 C 1529.386 645.132, 1530 642.401, 1530 636.871 L 1530 630 1489.500 630 L 1449 630 1449 685 M 1545.912 632.280 C 1544.052 633.534, 1541.967 635.672, 1541.279 637.030 C 1540.334 638.898, 1540.029 650.588, 1540.029 685 C 1540.029 719.412, 1540.334 731.102, 1541.279 732.970 C 1541.967 734.328, 1544.052 736.466, 1545.912 737.720 C 1549.295 740, 1549.300 740, 1589.648 740 L 1630 740 1630 707.500 L 1630 675 1611 675 L 1592 675 1592 693.500 L 1592 712 1585 712 L 1578 712 1578 685 L 1578 658 1600.818 658 L 1623.636 658 1626.826 650.250 C 1629.253 644.355, 1630.014 641.004, 1630.008 636.250 L 1630 630 1589.648 630 C 1549.300 630, 1549.295 630, 1545.912 632.280 M 1644 685 L 1644 740 1684.500 740 L 1725 740 1725 726 L 1725 712 1703.500 712 L 1682 712 1682 705 L 1682 698 1700.500 698 L 1719 698 1719 684 L 1719 670 1700.500 670 L 1682 670 1682 664 L 1682 658 1700.351 658 L 1718.702 658 1721.851 650.871 C 1724.386 645.132, 1725 642.401, 1725 636.871 L 1725 630 1684.500 630 L 1644 630 1644 685 M 1813 644 L 1813 658 1824.500 658 L 1836 658 1836 699 L 1836 740 1855 740 L 1874 740 1874 699 L 1874 658 1883.063 658 L 1892.125 658 1895.251 651.250 C 1897.575 646.233, 1898.485 642.639, 1898.798 637.250 L 1899.219 630 1856.109 630 L 1813 630 1813 644 M 1907 685 L 1907 740 1926 740 L 1945 740 1945 719 L 1945 698 1952 698 L 1959 698 1959 719 L 1959 740 1978 740 L 1997 740 1997 685 L 1997 630 1978 630 L 1959 630 1959 650 L 1959 670 1952 670 L 1945 670 1945 650 L 1945 630 1926 630 L 1907 630 1907 685 M 2015.912 632.280 C 2014.052 633.534, 2011.967 635.672, 2011.279 637.030 C 2010.334 638.898, 2010.029 650.588, 2010.029 685 C 2010.029 719.412, 2010.334 731.102, 2011.279 732.970 C 2011.967 734.328, 2014.052 736.466, 2015.912 737.720 C 2019.277 739.988, 2019.490 740, 2055 740 C 2090.510 740, 2090.723 739.988, 2094.088 737.720 C 2095.948 736.466, 2098.033 734.328, 2098.721 732.970 C 2100.523 729.409, 2100.523 640.591, 2098.721 637.030 C 2098.033 635.672, 2095.948 633.534, 2094.088 632.280 C 2090.723 630.012, 2090.510 630, 2055 630 C 2019.490 630, 2019.277 630.012, 2015.912 632.280 M 2114 684.979 L 2114 740 2131.500 740 L 2149 740 2149 733.155 C 2149 727.467, 2146.296 703.061, 2144.523 692.750 C 2144.220 690.987, 2144.490 690.003, 2145.275 690.008 C 2145.977 690.012, 2150.126 700.569, 2155 714.758 L 2163.500 739.500 2183.750 739.771 L 2204 740.041 2204 685.021 L 2204 630 2186.363 630 L 2168.725 630 2169.316 641.750 C 2169.641 648.212, 2170.752 659.462, 2171.785 666.750 C 2173.188 676.646, 2173.361 680, 2172.468 680 C 2171.801 680, 2167.542 669.069, 2162.826 655.250 L 2154.379 630.500 2134.189 630.229 L 2114 629.959 2114 684.979 M 2218 685 L 2218 740 2258.352 740 C 2311.173 740, 2307.961 741.767, 2307.985 712.700 C 2307.997 698.705, 2307.675 694.272, 2306.479 691.960 C 2304.884 688.874, 2298.516 685, 2295.040 685 C 2291.504 685, 2292.826 683.124, 2297.190 681.949 C 2299.494 681.328, 2302.869 679.331, 2304.690 677.510 L 2308 674.200 2307.985 656.850 C 2307.969 637.697, 2307.553 635.963, 2302.088 632.280 C 2298.705 630, 2298.700 630, 2258.352 630 L 2218 630 2218 685 M 2321.015 680.250 C 2321.026 718.438, 2321.330 731.093, 2322.279 732.970 C 2322.967 734.328, 2325.052 736.466, 2326.912 737.720 C 2330.295 740, 2330.300 740, 2370.648 740 L 2411 740 2411 685 L 2411 630 2392 630 L 2373 630 2373 671 L 2373 712 2366 712 L 2359 712 2359 671 L 2359 630 2340 630 L 2321 630 2321.015 680.250 M 2425 685 L 2425 740 2444 740 L 2463 740 2463 723 L 2463 706 2466.363 706 L 2469.727 706 2474.613 722.992 L 2479.500 739.984 2498.250 739.992 L 2517 740 2517 732.675 C 2517 725.961, 2516.542 724.322, 2511.500 713 C 2508.475 706.207, 2506 700.375, 2506 700.040 C 2506 699.705, 2507.352 698.632, 2509.005 697.656 C 2514.697 694.294, 2515.001 692.619, 2514.985 664.800 C 2514.969 637.057, 2514.801 636.130, 2509.088 632.280 C 2505.705 630, 2505.700 630, 2465.352 630 L 2425 630 2425 685 M 2527 685 L 2527 740 2546 740 L 2565 740 2565 685 L 2565 630 2546 630 L 2527 630 2527 685 M 78.980 658.750 C 78.970 659.163, 78.299 665.350, 77.490 672.500 C 75.359 691.342, 75.089 690, 81.019 690 C 85.701 690, 86.005 689.849, 85.552 687.750 C 85.285 686.513, 84.586 680.325, 84 674 C 82.665 659.599, 82.314 658, 80.481 658 C 79.666 658, 78.991 658.337, 78.980 658.750 M 592 668 L 592 678 599 678 L 606 678 606 668 L 606 658 599 658 L 592 658 592 668 M 833 685 L 833 712 840 712 L 847 712 847 685 L 847 658 840 658 L 833 658 833 685 M 1216 685 L 1216 712 1223 712 L 1230 712 1230 685 L 1230 658 1223 658 L 1216 658 1216 685 M 2048 685 L 2048 712 2055 712 L 2062 712 2062 685 L 2062 658 2055 658 L 2048 658 2048 685 M 2256 664 L 2256 670 2263 670 L 2270 670 2270 664 L 2270 658 2263 658 L 2256 658 2256 664 M 2463 668 L 2463 678 2470 678 L 2477 678 2477 668 L 2477 658 2470 658 L 2463 658 2463 668 M 2256 705 L 2256 712 2263 712 L 2270 712 2270 705 L 2270 698 2263 698 L 2256 698 2256 705" stroke="none" fill="#f45454" fill-rule="evenodd"/></svg>